<?xml version="1.0" encoding="UTF-8"?>
<svg width="196px" height="21px" viewBox="0 0 196 21" version="1.1" xmlns="http://www.w3.org/2000/svg" xmlns:xlink="http://www.w3.org/1999/xlink">
    <!-- Generator: Sketch 58 (84663) - https://sketch.com -->
    <title>MediaSimulator</title>
    <desc>Created with Sketch.</desc>
    <g id="Symbols" stroke="none" stroke-width="1" fill="none" fill-rule="evenodd">
        <g id="topNav" transform="translate(-31.000000, -24.000000)" fill="#FFFFFF" fill-rule="nonzero">
            <g id="MediaSimulator">
                <path d="M50.5215385,27.152 L50.5215385,44 L46.4175385,44 L46.4175385,33.464 L42.7695385,44 L39.2175385,44 L35.5455385,33.44 L35.5455385,44 L31.4415385,44 L31.4415385,27.152 L36.4575385,27.152 L41.0415385,38.888 L45.5295385,27.152 L50.5215385,27.152 Z M65.612,36.944 C65.612,37.2800017 65.5720004,37.647998 65.492,38.048 L56.204,38.048 C56.2520002,39.056005 56.5079977,39.7799978 56.972,40.22 C57.4360023,40.6600022 58.0279964,40.88 58.748,40.88 C59.356003,40.88 59.859998,40.7280015 60.26,40.424 C60.660002,40.1199985 60.9239994,39.7280024 61.052,39.248 L65.396,39.248 C65.2199991,40.1920047 64.836003,41.0359963 64.244,41.78 C63.651997,42.5240037 62.9000046,43.1079979 61.988,43.532 C61.0759954,43.9560021 60.0600056,44.168 58.94,44.168 C57.6279934,44.168 56.4640051,43.8920028 55.448,43.34 C54.4319949,42.7879972 53.6360029,41.9920052 53.06,40.952 C52.4839971,39.9119948 52.196,38.696007 52.196,37.304 C52.196,35.895993 52.4799972,34.6760052 53.048,33.644 C53.6160028,32.6119948 54.4119949,31.8200028 55.436,31.268 C56.4600051,30.7159972 57.6279934,30.44 58.94,30.44 C60.2680066,30.44 61.435995,30.7119973 62.444,31.256 C63.452005,31.8000027 64.2319972,32.5639951 64.784,33.548 C65.3360028,34.5320049 65.612,35.6639936 65.612,36.944 Z M61.46,36.32 C61.4760001,35.4399956 61.2400024,34.7800022 60.752,34.34 C60.2639976,33.8999978 59.6600036,33.68 58.94,33.68 C58.1879962,33.68 57.5640025,33.9039978 57.068,34.352 C56.5719975,34.8000022 56.2920003,35.4559957 56.228,36.32 L61.46,36.32 Z M72.3744615,30.44 C73.3984667,30.44 74.2784579,30.6719977 75.0144615,31.136 C75.7504652,31.6000023 76.2864599,32.231996 76.6224615,33.032 L76.6224615,26.24 L80.7264615,26.24 L80.7264615,44 L76.6224615,44 L76.6224615,41.576 C76.2864599,42.376004 75.7504652,43.0079977 75.0144615,43.472 C74.2784579,43.9360023 73.3984667,44.168 72.3744615,44.168 C71.270456,44.168 70.2824659,43.8920028 69.4104615,43.34 C68.5384572,42.7879972 67.8504641,41.9920052 67.3464615,40.952 C66.842459,39.9119948 66.5904615,38.696007 66.5904615,37.304 C66.5904615,35.895993 66.842459,34.6760052 67.3464615,33.644 C67.8504641,32.6119948 68.5384572,31.8200028 69.4104615,31.268 C70.2824659,30.7159972 71.270456,30.44 72.3744615,30.44 Z M73.6944615,34.04 C72.8144571,34.04 72.1064642,34.3279971 71.5704615,34.904 C71.0344589,35.4800029 70.7664615,36.2799949 70.7664615,37.304 C70.7664615,38.3280051 71.0344589,39.1279971 71.5704615,39.704 C72.1064642,40.2800029 72.8144571,40.568 73.6944615,40.568 C74.5584659,40.568 75.2664615,40.272003 75.8184615,39.68 C76.3704643,39.087997 76.6464615,38.296005 76.6464615,37.304 C76.6464615,36.295995 76.3704643,35.5000029 75.8184615,34.916 C75.2664615,34.3319971 74.5584659,34.04 73.6944615,34.04 Z M82.7129231,26.84 C82.7129231,26.2159969 82.9369208,25.700002 83.3849231,25.292 C83.8329253,24.883998 84.4249194,24.68 85.1609231,24.68 C85.8969268,24.68 86.4889208,24.883998 86.9369231,25.292 C87.3849253,25.700002 87.6089231,26.2159969 87.6089231,26.84 C87.6089231,27.448003 87.3849253,27.955998 86.9369231,28.364 C86.4889208,28.772002 85.8969268,28.976 85.1609231,28.976 C84.4249194,28.976 83.8329253,28.772002 83.3849231,28.364 C82.9369208,27.955998 82.7129231,27.448003 82.7129231,26.84 Z M87.2009231,30.608 L87.2009231,44 L83.0969231,44 L83.0969231,30.608 L87.2009231,30.608 Z M94.6593846,30.44 C95.6833897,30.44 96.5633809,30.6719977 97.2993846,31.136 C98.0353883,31.6000023 98.5793829,32.231996 98.9313846,33.032 L98.9313846,30.608 L103.011385,30.608 L103.011385,44 L98.9313846,44 L98.9313846,41.576 C98.5793829,42.376004 98.0353883,43.0079977 97.2993846,43.472 C96.5633809,43.9360023 95.6833897,44.168 94.6593846,44.168 C93.5553791,44.168 92.567389,43.8920028 91.6953846,43.34 C90.8233803,42.7879972 90.1353871,41.9920052 89.6313846,40.952 C89.1273821,39.9119948 88.8753846,38.696007 88.8753846,37.304 C88.8753846,35.895993 89.1273821,34.6760052 89.6313846,33.644 C90.1353871,32.6119948 90.8233803,31.8200028 91.6953846,31.268 C92.567389,30.7159972 93.5553791,30.44 94.6593846,30.44 Z M95.9793846,34.04 C95.0993802,34.04 94.3913873,34.3279971 93.8553846,34.904 C93.3193819,35.4800029 93.0513846,36.2799949 93.0513846,37.304 C93.0513846,38.3280051 93.3193819,39.1279971 93.8553846,39.704 C94.3913873,40.2800029 95.0993802,40.568 95.9793846,40.568 C96.8433889,40.568 97.5513846,40.272003 98.1033846,39.68 C98.6553874,39.087997 98.9313846,38.296005 98.9313846,37.304 C98.9313846,36.295995 98.6553874,35.5000029 98.1033846,34.916 C97.5513846,34.3319971 96.8433889,34.04 95.9793846,34.04 Z M121.912308,39.224 C121.912308,40.1200045 121.68431,40.9439962 121.228308,41.696 C120.772305,42.4480038 120.100312,43.0479978 119.212308,43.496 C118.324303,43.9440022 117.248314,44.168 115.984308,44.168 C114.080298,44.168 112.512314,43.7040046 111.280308,42.776 C110.048302,41.8479954 109.376308,40.5520083 109.264308,38.888 L113.632308,38.888 C113.696308,39.5280032 113.924306,40.0319982 114.316308,40.4 C114.70831,40.768 115.208305,40.952 115.816308,40.952 C116.34431,40.952 116.760306,40.8080014 117.064308,40.52 C117.368309,40.2319986 117.520308,39.8480024 117.520308,39.368 C117.520308,38.9359978 117.380309,38.5760014 117.100308,38.288 C116.820306,37.9999986 116.47231,37.7640009 116.056308,37.58 L115.714307,37.4352498 C115.404308,37.3089999 115.03181,37.1686882 114.596809,37.0143128 L114.328308,36.92 C113.256302,36.5519982 112.380311,36.1960017 111.700308,35.852 C111.020304,35.5079983 110.43631,34.9960034 109.948308,34.316 C109.460305,33.6359966 109.216308,32.7520054 109.216308,31.664 C109.216308,30.655995 109.472305,29.7840037 109.984308,29.048 C110.49631,28.3119963 111.204303,27.748002 112.108308,27.356 C113.012312,26.963998 114.048302,26.768 115.216308,26.768 C117.104317,26.768 118.604302,27.2159955 119.716308,28.112 C120.828313,29.0080045 121.456307,30.2399922 121.600308,31.808 L117.160308,31.808 C117.080307,31.2479972 116.876309,30.8040016 116.548308,30.476 C116.220306,30.1479984 115.77631,29.984 115.216308,29.984 C114.736305,29.984 114.348309,30.1119987 114.052308,30.368 C113.756306,30.6240013 113.608308,30.9999975 113.608308,31.496 C113.608308,31.896002 113.740306,32.2359986 114.004308,32.516 C114.268309,32.7960014 114.600306,33.0239991 115.000308,33.2 L115.333308,33.3410002 C115.699307,33.491 116.164305,33.667999 116.728308,33.872 C117.816313,34.2400018 118.704304,34.6039982 119.392308,34.964 C120.080311,35.3240018 120.672305,35.8479966 121.168308,36.536 C121.66431,37.2240034 121.912308,38.1199945 121.912308,39.224 Z M123.346769,26.84 C123.346769,26.2159969 123.570767,25.700002 124.018769,25.292 C124.466771,24.883998 125.058766,24.68 125.794769,24.68 C126.530773,24.68 127.122767,24.883998 127.570769,25.292 C128.018771,25.700002 128.242769,26.2159969 128.242769,26.84 C128.242769,27.448003 128.018771,27.955998 127.570769,28.364 C127.122767,28.772002 126.530773,28.976 125.794769,28.976 C125.058766,28.976 124.466771,28.772002 124.018769,28.364 C123.570767,27.955998 123.346769,27.448003 123.346769,26.84 Z M127.834769,30.608 L127.834769,44 L123.730769,44 L123.730769,30.608 L127.834769,30.608 Z M147.557231,30.464 C149.205231,30.464 150.501226,30.9719949 151.445231,31.988 C152.389235,33.0040051 152.861231,34.415991 152.861231,36.224 L152.861231,44 L148.781231,44 L148.781231,36.704 C148.781231,35.8559958 148.553233,35.1960024 148.097231,34.724 C147.641228,34.2519976 147.021235,34.016 146.237231,34.016 C145.421227,34.016 144.777233,34.2679975 144.305231,34.772 C143.833228,35.2760025 143.597231,35.9839954 143.597231,36.896 L143.597231,44 L139.493231,44 L139.493231,36.704 C139.493231,35.8559958 139.269233,35.1960024 138.821231,34.724 C138.373229,34.2519976 137.757235,34.016 136.973231,34.016 C136.157227,34.016 135.509233,34.2639975 135.029231,34.76 C134.549228,35.2560025 134.309231,35.9679954 134.309231,36.896 L134.309231,44 L130.205231,44 L130.205231,30.608 L134.309231,30.608 L134.309231,32.888 C134.661233,32.1359962 135.201227,31.5440022 135.929231,31.112 C136.657234,30.6799978 137.509226,30.464 138.485231,30.464 C139.509236,30.464 140.413227,30.6999976 141.197231,31.172 C141.981235,31.6440024 142.573229,32.3199956 142.973231,33.2 C143.437233,32.3679958 144.073227,31.7040025 144.881231,31.208 C145.689235,30.7119975 146.581226,30.464 147.557231,30.464 Z M168.455692,30.608 L168.455692,44 L164.327692,44 L164.327692,41.576 C163.943692,42.3600039 163.371696,42.9839977 162.611692,43.448 C161.851689,43.9120023 160.967697,44.144 159.959692,44.144 C158.423685,44.144 157.203697,43.6320051 156.299692,42.608 C155.395688,41.5839949 154.943692,40.176009 154.943692,38.384 L154.943692,30.608 L159.023692,30.608 L159.023692,37.88 C159.023692,38.7920046 159.25969,39.4999975 159.731692,40.004 C160.203695,40.5080025 160.839688,40.76 161.639692,40.76 C162.471696,40.76 163.12769,40.4960026 163.607692,39.968 C164.087695,39.4399974 164.327692,38.6880049 164.327692,37.712 L164.327692,30.608 L168.455692,30.608 Z M174.930154,26.24 L174.930154,44 L170.826154,44 L170.826154,26.24 L174.930154,26.24 Z M182.388615,30.44 C183.412621,30.44 184.292612,30.6719977 185.028615,31.136 C185.764619,31.6000023 186.308614,32.231996 186.660615,33.032 L186.660615,30.608 L190.740615,30.608 L190.740615,44 L186.660615,44 L186.660615,41.576 C186.308614,42.376004 185.764619,43.0079977 185.028615,43.472 C184.292612,43.9360023 183.412621,44.168 182.388615,44.168 C181.28461,44.168 180.29662,43.8920028 179.424615,43.34 C178.552611,42.7879972 177.864618,41.9920052 177.360615,40.952 C176.856613,39.9119948 176.604615,38.696007 176.604615,37.304 C176.604615,35.895993 176.856613,34.6760052 177.360615,33.644 C177.864618,32.6119948 178.552611,31.8200028 179.424615,31.268 C180.29662,30.7159972 181.28461,30.44 182.388615,30.44 Z M183.708615,34.04 C182.828611,34.04 182.120618,34.3279971 181.584615,34.904 C181.048613,35.4800029 180.780615,36.2799949 180.780615,37.304 C180.780615,38.3280051 181.048613,39.1279971 181.584615,39.704 C182.120618,40.2800029 182.828611,40.568 183.708615,40.568 C184.57262,40.568 185.280615,40.272003 185.832615,39.68 C186.384618,39.087997 186.660615,38.296005 186.660615,37.304 C186.660615,36.295995 186.384618,35.5000029 185.832615,34.916 C185.280615,34.3319971 184.57262,34.04 183.708615,34.04 Z M200.695077,40.472 L200.695077,44 L198.847077,44 C197.279069,44 196.059081,43.6120039 195.187077,42.836 C194.315073,42.0599961 193.879077,40.776009 193.879077,38.984 L193.879077,34.064 L192.079077,34.064 L192.079077,30.608 L193.879077,30.608 L193.879077,27.32 L197.983077,27.32 L197.983077,30.608 L200.671077,30.608 L200.671077,34.064 L197.983077,34.064 L197.983077,39.056 C197.983077,39.5840026 198.091076,39.951999 198.307077,40.16 C198.523078,40.368001 198.887074,40.472 199.399077,40.472 L200.695077,40.472 Z M208.801538,30.44 C210.129545,30.44 211.317533,30.7159972 212.365538,31.268 C213.413544,31.8200028 214.237535,32.6159948 214.837538,33.656 C215.437541,34.6960052 215.737538,35.911993 215.737538,37.304 C215.737538,38.696007 215.437541,39.9119948 214.837538,40.952 C214.237535,41.9920052 213.413544,42.7879972 212.365538,43.34 C211.317533,43.8920028 210.129545,44.168 208.801538,44.168 C207.473532,44.168 206.281544,43.8920028 205.225538,43.34 C204.169533,42.7879972 203.341538,41.9920052 202.741538,40.952 C202.141535,39.9119948 201.841538,38.696007 201.841538,37.304 C201.841538,35.911993 202.141535,34.6960052 202.741538,33.656 C203.341538,32.6159948 204.169533,31.8200028 205.225538,31.268 C206.281544,30.7159972 207.473532,30.44 208.801538,30.44 Z M208.801538,33.992 C208.017538,33.992 207.357541,34.2759972 206.821538,34.844 C206.285536,35.4120028 206.017538,36.2319946 206.017538,37.304 C206.017538,38.3760054 206.285536,39.1919972 206.821538,39.752 C207.357541,40.3120028 208.017538,40.592 208.801538,40.592 C209.585542,40.592 210.241536,40.3120028 210.769538,39.752 C211.297541,39.1919972 211.561538,38.3760054 211.561538,37.304 C211.561538,36.2319946 211.297541,35.4120028 210.769538,34.844 C210.241536,34.2759972 209.585542,33.992 208.801538,33.992 Z M221.516,33.128 C222.028003,32.3119959 222.687996,31.6640024 223.496,31.184 C224.304004,30.7039976 225.179995,30.464 226.124,30.464 L226.124,34.856 L224.948,34.856 C223.859995,34.856 223.016003,35.0879977 222.416,35.552 C221.815997,36.0160023 221.516,36.7999945 221.516,37.904 L221.516,44 L217.412,44 L217.412,30.608 L221.516,30.608 L221.516,33.128 Z"></path>
            </g>
        </g>
    </g>
</svg>